<?xml version="1.0" standalone="no"?>
<!DOCTYPE svg PUBLIC "-//W3C//DTD SVG 20010904//EN"
 "http://www.w3.org/TR/2001/REC-SVG-20010904/DTD/svg10.dtd">
<svg version="1.0" xmlns="http://www.w3.org/2000/svg"
 width="1109.000000pt" height="944.000000pt" viewBox="0 0 1109.000000 944.000000"
 preserveAspectRatio="xMidYMid meet">

<g transform="translate(0.000000,944.000000) scale(0.100000,-0.100000)"
fill="#000000" stroke="none">
<path d="M27 2641 c-8 -91 -9 -88 13 -91 29 -4 235 2 218 7 -11 3 -18 14 -18
29 0 21 -4 24 -40 24 -29 0 -40 4 -40 15 0 20 -5 19 -40 -7 -16 -12 -33 -19
-37 -15 -3 4 -1 7 5 7 7 0 12 7 12 16 0 10 -5 14 -16 10 -8 -3 -13 -2 -10 2 2
4 1 14 -5 22 -6 11 -9 7 -9 -14 0 -46 -18 -18 -22 34 -2 36 -5 28 -11 -39z
m133 -71 c0 -5 -5 -10 -11 -10 -5 0 -7 5 -4 10 3 6 8 10 11 10 2 0 4 -4 4 -10z"/>
<path d="M2 2670 c0 -14 2 -19 5 -12 2 6 2 18 0 25 -3 6 -5 1 -5 -13z"/>
<path d="M3 2585 c0 -27 2 -38 4 -22 2 15 2 37 0 50 -2 12 -4 0 -4 -28z"/>
<path d="M345 2590 c-3 -5 3 -10 15 -10 12 0 18 5 15 10 -3 6 -10 10 -15 10
-5 0 -12 -4 -15 -10z"/>
<path d="M0 641 l0 -641 5545 0 5545 0 0 633 0 632 -2787 0 c-1534 0 -4029 4
-5545 9 l-2758 9 0 -642z"/>
</g>
</svg>
